<svg width="32" height="32" viewBox="0 0 32 32" fill="none" xmlns="http://www.w3.org/2000/svg">
<g id="Icon/Mail">
<path id="Union" fill-rule="evenodd" clip-rule="evenodd" d="M16.0003 15.8113L3.20507 9.41445C3.25243 8.59916 3.60972 7.83284 4.20375 7.27242C4.79778 6.712 5.5836 6.39991 6.40027 6.40005H25.6003C26.4169 6.39991 27.2028 6.712 27.7968 7.27242C28.3908 7.83284 28.7481 8.59916 28.7955 9.41445L16.0003 15.8113ZM15.9999 19.3888L28.7999 12.9888V22.4C28.7999 23.2487 28.4627 24.0626 27.8626 24.6627C27.2625 25.2628 26.4486 25.6 25.5999 25.6H6.39986C5.55117 25.6 4.73723 25.2628 4.13712 24.6627C3.537 24.0626 3.19986 23.2487 3.19986 22.4V12.9888L15.9999 19.3888Z" fill="#0C0B0B"/>
</g>
</svg>
